# xmcd
#
# Track frame offsets: 
#        182
#        20867
#        44150
#        69407
#        86787
#        102597
#        122217
#        143165
#        161710
#        181542
#
# Disc length: 2715 seconds
#
# Revision: 2
# Processed by: cddbd v1.5.2PL0 Copyright (c) Steve Scherf et al.
# Submitted via: ExactAudioCopy v1.0b3
#
DISCID=910a990a
DTITLE=Tanya Blount - Natural Thing
DYEAR=1994
DGENRE=R&B
TTITLE0=I'm Gonna Make You Mine
TTITLE1=Through The Rain
TTITLE2=Hold On
TTITLE3=No More Lies
TTITLE4=Love Ballad
TTITLE5=Is It Love
TTITLE6=Spend Another Night
TTITLE7=Natural Thing
TTITLE8=For All The Right Reasons
TTITLE9=Baby Love
EXTD=
EXTT0=
EXTT1=
EXTT2=
EXTT3=
EXTT4=
EXTT5=
EXTT6=
EXTT7=
EXTT8=
EXTT9=
PLAYORDER=
